<svg xmlns="http://www.w3.org/2000/svg" xmlns:xlink="http://www.w3.org/1999/xlink" width="500" zoomAndPan="magnify" viewBox="0 0 375 374.999991" height="500" preserveAspectRatio="xMidYMid meet" version="1.0"><defs><clipPath id="7a9caff0c6"><path d="M 17 180.238281 L 358 180.238281 L 358 365.488281 L 17 365.488281 Z M 17 180.238281 " clip-rule="nonzero"/></clipPath><clipPath id="bcc67db3b1"><path d="M 167.582031 9.148438 L 207.363281 9.148438 L 207.363281 170.398438 L 167.582031 170.398438 Z M 167.582031 9.148438 " clip-rule="nonzero"/></clipPath><clipPath id="0307be8f6e"><path d="M 215.207031 59 L 237.289062 59 L 237.289062 149.539062 L 215.207031 149.539062 Z M 215.207031 59 " clip-rule="nonzero"/></clipPath><clipPath id="42ad5d44a5"><path d="M 137.652344 44 L 160 44 L 160 135 L 137.652344 135 Z M 137.652344 44 " clip-rule="nonzero"/></clipPath></defs><g clip-path="url(#7a9caff0c6)"><path fill="#ffffff" d="M 211.441406 330.433594 C 213.851562 330.367188 216.269531 330.3125 218.675781 330.136719 L 222.277344 329.808594 C 223.480469 329.699219 224.6875 329.609375 225.878906 329.410156 L 229.464844 328.878906 C 230.660156 328.699219 231.863281 328.554688 233.042969 328.28125 C 235.402344 327.765625 237.785156 327.3125 240.132812 326.742188 L 247.132812 324.804688 C 251.714844 323.265625 256.351562 321.800781 260.753906 319.773438 C 265.269531 318.007812 269.542969 315.625 273.90625 313.4375 C 276.011719 312.257812 278.035156 310.988281 280.097656 309.769531 L 283.179688 307.917969 L 283.566406 307.6875 L 284 307.386719 L 284.75 306.863281 L 286.253906 305.8125 C 288.300781 304.457031 290.171875 302.882812 292.09375 301.371094 C 293.066406 300.625 293.933594 299.765625 294.863281 298.96875 C 295.757812 298.140625 296.722656 297.375 297.5625 296.496094 C 299.296875 294.773438 301.066406 293.089844 302.671875 291.253906 C 303.488281 290.347656 304.34375 289.476562 305.117188 288.539062 L 307.460938 285.730469 C 308.257812 284.804688 308.96875 283.820312 309.703125 282.851562 C 310.433594 281.875 311.183594 280.917969 311.890625 279.929688 C 313.261719 277.921875 314.710938 275.964844 315.988281 273.898438 C 318.667969 269.84375 321.039062 265.609375 323.359375 261.355469 C 325.59375 257.054688 327.765625 252.71875 329.667969 248.269531 C 331.582031 243.828125 333.398438 239.34375 335.023438 234.792969 C 336.660156 230.25 338.195312 225.667969 339.566406 221.039062 C 340.949219 216.410156 342.183594 211.746094 343.28125 207.042969 C 344.378906 202.328125 345.363281 197.640625 346.121094 192.792969 L 346.476562 190.511719 L 344.175781 190.53125 L 330.632812 190.640625 L 317.089844 190.808594 L 303.550781 190.972656 L 290.011719 191.203125 L 276.46875 191.445312 L 262.925781 191.738281 L 249.386719 192.082031 L 235.847656 192.496094 L 249.386719 192.910156 L 262.925781 193.253906 L 276.46875 193.546875 L 290.011719 193.789062 L 303.550781 194.023438 L 317.089844 194.1875 L 330.632812 194.351562 L 341.8125 194.441406 C 341.082031 198.316406 340.203125 202.222656 339.246094 206.074219 C 338.089844 210.679688 336.8125 215.253906 335.445312 219.800781 C 334.078125 224.347656 332.542969 228.84375 330.914062 233.300781 C 329.296875 237.761719 327.496094 242.152344 325.597656 246.492188 C 323.691406 250.832031 321.628906 255.09375 319.457031 259.300781 C 317.214844 263.460938 314.921875 267.605469 312.335938 271.554688 C 311.105469 273.574219 309.710938 275.476562 308.390625 277.429688 C 307.710938 278.394531 306.988281 279.324219 306.285156 280.269531 C 305.578125 281.214844 304.886719 282.167969 304.128906 283.070312 L 301.910156 285.816406 C 301.171875 286.734375 300.359375 287.585938 299.589844 288.472656 C 298.0625 290.269531 296.386719 291.914062 294.742188 293.597656 C 293.941406 294.460938 293.03125 295.203125 292.179688 296.011719 C 291.304688 296.792969 290.476562 297.632812 289.558594 298.359375 C 287.734375 299.832031 285.960938 301.382812 284.019531 302.703125 L 282.59375 303.730469 L 281.882812 304.242188 L 281.578125 304.464844 L 281.199219 304.703125 L 278.15625 306.625 C 276.128906 307.890625 274.117188 309.21875 272.074219 310.433594 C 267.914062 312.628906 263.859375 315.035156 259.476562 316.882812 C 255.207031 318.953125 250.738281 320.558594 246.292969 322.222656 L 239.496094 324.351562 C 237.210938 324.992188 234.890625 325.515625 232.585938 326.105469 C 231.441406 326.425781 230.265625 326.613281 229.097656 326.84375 L 225.59375 327.515625 C 224.429688 327.769531 223.246094 327.90625 222.066406 328.066406 L 218.527344 328.542969 C 217.347656 328.730469 216.15625 328.765625 214.96875 328.882812 C 213.78125 328.976562 212.59375 329.101562 211.402344 329.175781 C 209.019531 329.242188 206.632812 329.429688 204.246094 329.355469 C 199.472656 329.339844 194.675781 329.097656 189.949219 328.257812 C 194.613281 329.378906 199.414062 329.984375 204.21875 330.234375 C 206.625 330.433594 209.03125 330.371094 211.441406 330.433594 Z M 247.914062 347.988281 C 247.648438 347.214844 247.308594 346.480469 246.886719 345.828125 C 246.480469 345.160156 246 344.570312 245.5 344.007812 C 244.96875 343.441406 244.496094 342.976562 243.773438 342.4375 L 243.277344 342.066406 L 242.546875 342.050781 C 238.648438 341.972656 234.753906 341.960938 230.855469 341.988281 C 226.960938 342.03125 223.066406 342.109375 219.171875 342.273438 C 217.222656 342.34375 215.273438 342.4375 213.324219 342.550781 C 211.378906 342.65625 209.429688 342.8125 207.484375 342.957031 C 205.535156 343.082031 203.585938 343.296875 201.636719 343.472656 C 199.691406 343.683594 197.742188 343.902344 195.796875 344.199219 C 197.742188 344.496094 199.691406 344.710938 201.636719 344.925781 C 203.585938 345.101562 205.535156 345.316406 207.484375 345.441406 C 209.429688 345.585938 211.378906 345.742188 213.324219 345.84375 C 215.273438 345.957031 217.222656 346.050781 219.171875 346.125 C 223.066406 346.289062 226.960938 346.363281 230.855469 346.40625 C 234.511719 346.433594 238.167969 346.421875 241.824219 346.355469 C 241.835938 346.367188 241.851562 346.378906 241.867188 346.394531 C 242.070312 346.558594 242.261719 346.738281 242.453125 346.917969 C 242.816406 347.289062 243.175781 347.675781 243.453125 348.082031 C 243.746094 348.488281 243.960938 348.90625 244.15625 349.320312 L 244.367188 349.949219 C 244.390625 350.15625 244.449219 350.367188 244.472656 350.578125 C 244.457031 350.789062 244.488281 351.003906 244.472656 351.21875 L 244.375 351.867188 C 244.296875 352.082031 244.226562 352.304688 244.160156 352.527344 C 244.074219 352.753906 243.933594 352.96875 243.828125 353.191406 L 243.691406 353.464844 L 243.417969 353.855469 C 243.246094 354.050781 243.210938 354.148438 243 354.339844 C 242.671875 354.691406 242.242188 354.996094 241.789062 355.285156 C 240.871094 355.863281 239.777344 356.300781 238.625 356.625 C 237.472656 356.945312 236.261719 357.191406 235.03125 357.371094 C 233.792969 357.546875 232.539062 357.65625 231.273438 357.746094 C 230.003906 357.8125 228.726562 357.863281 227.4375 357.859375 C 228.667969 358.246094 229.9375 358.53125 231.214844 358.746094 C 232.496094 358.96875 233.792969 359.121094 235.109375 359.171875 C 236.425781 359.238281 237.761719 359.226562 239.113281 359.042969 C 240.457031 358.875 241.832031 358.570312 243.1875 357.984375 C 243.855469 357.671875 244.53125 357.308594 245.148438 356.808594 C 245.441406 356.605469 245.820312 356.214844 246.085938 355.945312 L 246.402344 355.589844 L 246.460938 355.519531 L 246.535156 355.417969 L 246.617188 355.296875 L 246.777344 355.054688 C 246.984375 354.726562 247.214844 354.417969 247.394531 354.0625 L 247.886719 352.953125 C 248.011719 352.554688 248.105469 352.140625 248.203125 351.734375 C 248.273438 351.320312 248.285156 350.894531 248.3125 350.464844 C 248.308594 350.042969 248.25 349.625 248.210938 349.199219 C 248.125 348.792969 248.03125 348.382812 247.914062 347.988281 Z M 323.082031 276.886719 C 304.21875 303.625 277.621094 324.53125 246.546875 336.371094 L 246.597656 336.507812 C 245.378906 336.183594 244.105469 335.992188 242.785156 335.992188 L 132.175781 335.992188 C 130.804688 335.992188 129.488281 336.195312 128.226562 336.542969 L 128.308594 336.332031 C 97.261719 324.480469 70.6875 303.570312 51.847656 276.839844 C 33.402344 250.675781 22.367188 218.953125 21.761719 184.667969 L 353.199219 184.667969 C 352.585938 218.96875 341.542969 250.710938 323.082031 276.886719 Z M 253.097656 350.746094 C 253.097656 353.59375 251.945312 356.152344 250.074219 358.023438 C 248.203125 359.890625 245.640625 361.039062 242.785156 361.039062 L 132.175781 361.039062 C 129.324219 361.039062 126.757812 359.890625 124.886719 358.023438 C 123.015625 356.152344 121.867188 353.59375 121.867188 350.746094 C 121.867188 347.894531 123.015625 345.335938 124.886719 343.464844 C 126.757812 341.597656 129.324219 340.449219 132.175781 340.449219 L 242.785156 340.449219 C 245.640625 340.449219 248.203125 341.597656 250.074219 343.464844 C 251.945312 345.335938 253.097656 347.894531 253.097656 350.746094 Z M 17.257812 180.210938 L 17.265625 182.449219 C 17.425781 218.523438 28.84375 251.960938 48.195312 279.40625 C 66.820312 305.824219 92.792969 326.699219 123.15625 339.082031 C 119.664062 341.78125 117.40625 345.996094 117.402344 350.746094 C 117.40625 358.890625 124.015625 365.492188 132.175781 365.496094 L 242.785156 365.496094 C 250.945312 365.492188 257.558594 358.890625 257.558594 350.746094 C 257.558594 345.996094 255.300781 341.78125 251.804688 339.082031 C 282.148438 326.703125 308.109375 305.847656 326.730469 279.449219 C 346.097656 251.996094 357.53125 218.542969 357.691406 182.449219 L 357.703125 180.210938 L 17.257812 180.210938 " fill-opacity="1" fill-rule="nonzero"/></g><g clip-path="url(#bcc67db3b1)"><path fill="#ffffff" d="M 201.507812 9.152344 C 202.148438 13.050781 202.15625 17.226562 201.027344 21.277344 C 199.972656 25.347656 197.832031 29.160156 195.363281 32.484375 C 192.882812 35.828125 190.132812 38.777344 187.6875 41.65625 C 185.253906 44.542969 183.101562 47.363281 181.71875 50.332031 C 181.011719 51.808594 180.433594 53.300781 180.082031 54.855469 C 179.855469 55.613281 179.757812 56.417969 179.597656 57.195312 C 179.519531 58.003906 179.363281 58.78125 179.359375 59.605469 C 179.222656 62.871094 179.429688 66.308594 180.320312 69.253906 C 181.914062 75.253906 186.191406 79.898438 191.9375 85.28125 C 194.738281 88.027344 197.824219 90.988281 200.535156 94.703125 C 203.21875 98.382812 205.410156 102.863281 206.378906 107.492188 C 206.898438 109.800781 207.128906 112.121094 207.195312 114.394531 C 207.191406 115.523438 207.242188 116.65625 207.128906 117.785156 L 207.003906 119.46875 L 206.769531 121.171875 C 206.160156 125.695312 204.476562 130.261719 201.988281 134.089844 C 200.78125 136.035156 199.347656 137.773438 197.867188 139.347656 C 196.386719 140.925781 194.859375 142.382812 193.300781 143.691406 C 190.210938 146.355469 187.125 148.65625 184.382812 151.15625 C 181.613281 153.632812 179.195312 156.34375 177.371094 159.574219 C 175.527344 162.78125 174.367188 166.496094 173.65625 170.40625 C 173.011719 166.507812 173 162.328125 174.128906 158.277344 C 175.179688 154.207031 177.320312 150.390625 179.789062 147.0625 C 182.265625 143.71875 185.019531 140.769531 187.464844 137.886719 C 189.902344 135.003906 192.042969 132.179688 193.429688 129.214844 C 194.136719 127.742188 194.714844 126.25 195.0625 124.695312 C 195.292969 123.9375 195.390625 123.132812 195.554688 122.359375 C 195.625 121.550781 195.78125 120.773438 195.789062 119.945312 C 195.925781 116.6875 195.726562 113.246094 194.828125 110.308594 C 193.246094 104.308594 188.972656 99.664062 183.230469 94.273438 C 180.4375 91.519531 177.34375 88.566406 174.640625 84.847656 C 171.960938 81.171875 169.761719 76.695312 168.800781 72.0625 C 167.777344 67.40625 167.765625 62.898438 168.410156 58.390625 C 169.015625 53.867188 170.707031 49.308594 173.1875 45.476562 C 174.394531 43.53125 175.832031 41.796875 177.308594 40.222656 C 178.785156 38.640625 180.320312 37.1875 181.875 35.875 C 184.964844 33.214844 188.050781 30.914062 190.792969 28.410156 C 193.558594 25.933594 195.980469 23.21875 197.800781 19.988281 C 199.644531 16.777344 200.800781 13.0625 201.507812 9.152344 " fill-opacity="1" fill-rule="nonzero"/></g><g clip-path="url(#0307be8f6e)"><path fill="#ffffff" d="M 234.105469 59.078125 C 234.464844 61.253906 234.46875 63.589844 233.839844 65.851562 C 233.25 68.125 232.054688 70.253906 230.671875 72.113281 C 229.289062 73.980469 227.75 75.628906 226.382812 77.238281 C 225.023438 78.851562 223.824219 80.425781 223.046875 82.085938 C 222.652344 82.910156 222.332031 83.742188 222.136719 84.613281 C 222.011719 85.039062 221.957031 85.488281 221.863281 85.921875 C 221.824219 86.371094 221.734375 86.808594 221.730469 87.269531 C 221.65625 89.09375 221.773438 91.011719 222.269531 92.65625 C 223.15625 96.011719 225.550781 98.605469 228.761719 101.613281 C 230.324219 103.148438 232.046875 104.804688 233.5625 106.878906 C 235.0625 108.933594 236.285156 111.4375 236.828125 114.023438 C 237.117188 115.316406 237.246094 116.609375 237.28125 117.878906 C 237.28125 118.511719 237.3125 119.144531 237.246094 119.773438 L 237.179688 120.71875 L 237.046875 121.667969 C 236.707031 124.195312 235.765625 126.746094 234.375 128.886719 C 233.703125 129.972656 232.902344 130.945312 232.074219 131.824219 C 231.246094 132.707031 230.390625 133.519531 229.523438 134.253906 C 227.796875 135.738281 226.070312 137.023438 224.539062 138.421875 C 222.992188 139.804688 221.636719 141.320312 220.621094 143.125 C 219.59375 144.917969 218.941406 146.992188 218.546875 149.175781 C 218.183594 147 218.179688 144.664062 218.808594 142.402344 C 219.394531 140.128906 220.59375 137.996094 221.96875 136.132812 C 223.355469 134.265625 224.894531 132.617188 226.261719 131.007812 C 227.621094 129.398438 228.820312 127.816406 229.59375 126.164062 C 229.992188 125.339844 230.308594 124.507812 230.507812 123.636719 C 230.632812 123.214844 230.6875 122.765625 230.78125 122.332031 C 230.820312 121.878906 230.90625 121.445312 230.910156 120.984375 C 230.984375 119.160156 230.875 117.242188 230.375 115.597656 C 229.492188 112.246094 227.101562 109.648438 223.894531 106.640625 C 222.335938 105.101562 220.605469 103.449219 219.09375 101.375 C 217.597656 99.316406 216.367188 96.816406 215.832031 94.230469 C 215.261719 91.625 215.253906 89.105469 215.613281 86.589844 C 215.953125 84.0625 216.894531 81.511719 218.285156 79.371094 C 218.957031 78.285156 219.761719 77.320312 220.585938 76.4375 C 221.410156 75.554688 222.265625 74.742188 223.136719 74.007812 C 224.863281 72.519531 226.585938 71.234375 228.121094 69.835938 C 229.667969 68.453125 231.019531 66.9375 232.035156 65.132812 C 233.066406 63.335938 233.710938 61.261719 234.105469 59.078125 " fill-opacity="1" fill-rule="nonzero"/></g><g clip-path="url(#42ad5d44a5)"><path fill="#ffffff" d="M 156.625 44.726562 C 156.984375 46.90625 156.984375 49.242188 156.355469 51.503906 C 155.765625 53.777344 154.570312 55.90625 153.191406 57.765625 C 151.804688 59.632812 150.265625 61.28125 148.902344 62.890625 C 147.542969 64.503906 146.339844 66.078125 145.566406 67.738281 C 145.171875 68.5625 144.847656 69.394531 144.652344 70.265625 C 144.527344 70.691406 144.472656 71.140625 144.382812 71.574219 C 144.339844 72.023438 144.253906 72.457031 144.246094 72.921875 C 144.171875 74.742188 144.289062 76.664062 144.785156 78.308594 C 145.675781 81.664062 148.066406 84.257812 151.277344 87.265625 C 152.84375 88.800781 154.566406 90.457031 156.078125 92.527344 C 157.582031 94.585938 158.804688 97.089844 159.34375 99.675781 C 159.636719 100.964844 159.761719 102.261719 159.800781 103.53125 C 159.800781 104.164062 159.828125 104.796875 159.765625 105.425781 L 159.695312 106.371094 L 159.5625 107.320312 C 159.226562 109.847656 158.285156 112.398438 156.894531 114.539062 C 156.21875 115.625 155.417969 116.59375 154.589844 117.476562 C 153.765625 118.359375 152.910156 119.171875 152.039062 119.90625 C 150.3125 121.390625 148.589844 122.675781 147.054688 124.074219 C 145.507812 125.457031 144.15625 126.972656 143.136719 128.777344 C 142.109375 130.570312 141.460938 132.644531 141.0625 134.828125 C 140.699219 132.652344 140.695312 130.316406 141.328125 128.054688 C 141.914062 125.78125 143.109375 123.648438 144.488281 121.785156 C 145.875 119.914062 147.410156 118.269531 148.777344 116.660156 C 150.136719 115.050781 151.335938 113.46875 152.113281 111.816406 C 152.503906 110.992188 152.828125 110.15625 153.023438 109.289062 C 153.152344 108.863281 153.207031 108.417969 153.296875 107.980469 C 153.335938 107.53125 153.425781 107.097656 153.425781 106.636719 C 153.503906 104.8125 153.394531 102.894531 152.894531 101.25 C 152.007812 97.898438 149.617188 95.300781 146.414062 92.292969 C 144.851562 90.75 143.121094 89.101562 141.613281 87.023438 C 140.113281 84.96875 138.886719 82.46875 138.351562 79.882812 C 137.777344 77.277344 137.773438 74.757812 138.128906 72.238281 C 138.46875 69.714844 139.414062 67.164062 140.796875 65.023438 C 141.476562 63.9375 142.277344 62.96875 143.101562 62.089844 C 143.929688 61.207031 144.785156 60.394531 145.652344 59.660156 C 147.378906 58.171875 149.105469 56.886719 150.636719 55.488281 C 152.183594 54.105469 153.535156 52.589844 154.550781 50.785156 C 155.582031 48.988281 156.230469 46.914062 156.625 44.726562 " fill-opacity="1" fill-rule="nonzero"/></g></svg>