<svg xmlns="http://www.w3.org/2000/svg" xmlns:xlink="http://www.w3.org/1999/xlink" width="300" zoomAndPan="magnify" viewBox="0 0 224.87999 374.999991" height="500" preserveAspectRatio="xMidYMid meet" version="1.0"><defs><clipPath id="26b6acd000"><path d="M 68 5.410156 L 157 5.410156 L 157 369.714844 L 68 369.714844 Z M 68 5.410156 " clip-rule="nonzero"/></clipPath><clipPath id="6b58caa13d"><path d="M 175 118 L 224.625 118 L 224.625 322 L 175 322 Z M 175 118 " clip-rule="nonzero"/></clipPath></defs><g clip-path="url(#26b6acd000)"><path fill="#ffffff" d="M 143.957031 5.414062 C 145.402344 14.226562 145.417969 23.660156 142.875 32.804688 C 140.5 42.003906 135.671875 50.617188 130.105469 58.132812 C 124.515625 65.683594 118.3125 72.34375 112.796875 78.851562 C 107.308594 85.371094 102.460938 91.746094 99.339844 98.449219 C 97.746094 101.789062 96.445312 105.160156 95.652344 108.671875 C 95.148438 110.386719 94.925781 112.203125 94.558594 113.957031 C 94.386719 115.78125 94.035156 117.539062 94.027344 119.40625 C 93.714844 126.777344 94.183594 134.546875 96.191406 141.195312 C 99.78125 154.757812 109.425781 165.246094 122.382812 177.414062 C 128.699219 183.617188 135.652344 190.304688 141.761719 198.699219 C 147.816406 207.011719 152.753906 217.132812 154.9375 227.589844 C 156.117188 232.804688 156.628906 238.046875 156.777344 243.179688 C 156.773438 245.738281 156.886719 248.296875 156.632812 250.84375 L 156.351562 254.652344 L 155.824219 258.496094 C 154.449219 268.714844 150.652344 279.03125 145.042969 287.683594 C 142.320312 292.078125 139.09375 296.003906 135.75 299.5625 C 132.417969 303.125 128.96875 306.417969 125.453125 309.378906 C 118.492188 315.390625 111.535156 320.589844 105.347656 326.242188 C 99.109375 331.832031 93.652344 337.964844 89.542969 345.253906 C 85.386719 352.503906 82.773438 360.898438 81.167969 369.726562 C 79.710938 360.921875 79.6875 351.484375 82.230469 342.332031 C 84.601562 333.132812 89.429688 324.511719 94.988281 316.992188 C 100.578125 309.433594 106.78125 302.773438 112.300781 296.265625 C 117.789062 289.75 122.621094 283.367188 125.75 276.671875 C 127.34375 273.339844 128.640625 269.96875 129.429688 266.460938 C 129.945312 264.746094 130.167969 262.929688 130.535156 261.179688 C 130.699219 259.351562 131.050781 257.601562 131.0625 255.730469 C 131.371094 248.363281 130.925781 240.59375 128.902344 233.949219 C 125.335938 220.398438 115.695312 209.902344 102.75 197.730469 C 96.460938 191.503906 89.476562 184.835938 83.386719 176.4375 C 77.34375 168.125 72.386719 158.007812 70.222656 147.550781 C 67.914062 137.027344 67.890625 126.839844 69.339844 116.65625 C 70.707031 106.4375 74.515625 96.136719 80.105469 87.476562 C 82.832031 83.085938 86.066406 79.171875 89.398438 75.613281 C 92.730469 72.039062 96.1875 68.753906 99.695312 65.792969 C 106.660156 59.777344 113.617188 54.578125 119.800781 48.925781 C 126.035156 43.328125 131.5 37.199219 135.597656 29.898438 C 139.753906 22.644531 142.363281 14.25 143.957031 5.414062 " fill-opacity="1" fill-rule="nonzero"/></g><g clip-path="url(#6b58caa13d)"><path fill="#ffffff" d="M 217.453125 118.210938 C 218.261719 123.132812 218.273438 128.402344 216.847656 133.511719 C 215.519531 138.648438 212.824219 143.464844 209.710938 147.664062 C 206.589844 151.882812 203.125 155.605469 200.039062 159.238281 C 196.976562 162.882812 194.269531 166.445312 192.519531 170.191406 C 191.632812 172.058594 190.90625 173.9375 190.464844 175.902344 C 190.183594 176.859375 190.058594 177.878906 189.851562 178.855469 C 189.757812 179.875 189.558594 180.859375 189.550781 181.898438 C 189.382812 186.023438 189.644531 190.359375 190.765625 194.078125 C 192.769531 201.652344 198.160156 207.511719 205.398438 214.308594 C 208.925781 217.78125 212.8125 221.515625 216.230469 226.207031 C 219.609375 230.851562 222.367188 236.507812 223.585938 242.347656 C 224.242188 245.265625 224.535156 248.191406 224.613281 251.058594 C 224.613281 252.492188 224.679688 253.917969 224.535156 255.339844 L 224.382812 257.472656 L 224.082031 259.617188 C 223.316406 265.328125 221.195312 271.09375 218.0625 275.925781 C 216.542969 278.378906 214.734375 280.578125 212.871094 282.5625 C 211.003906 284.554688 209.074219 286.390625 207.117188 288.050781 C 203.222656 291.40625 199.335938 294.3125 195.882812 297.46875 C 192.394531 300.59375 189.34375 304.019531 187.050781 308.09375 C 184.730469 312.148438 183.265625 316.832031 182.371094 321.769531 C 181.558594 316.851562 181.542969 311.574219 182.964844 306.460938 C 184.285156 301.324219 186.984375 296.503906 190.089844 292.300781 C 193.21875 288.078125 196.679688 284.359375 199.765625 280.71875 C 202.828125 277.082031 205.53125 273.511719 207.28125 269.777344 C 208.171875 267.910156 208.894531 266.03125 209.335938 264.066406 C 209.625 263.113281 209.746094 262.097656 209.953125 261.117188 C 210.042969 260.097656 210.242188 259.113281 210.25 258.074219 C 210.417969 253.957031 210.171875 249.617188 209.042969 245.902344 C 207.046875 238.328125 201.660156 232.464844 194.429688 225.664062 C 190.914062 222.1875 187.015625 218.460938 183.609375 213.765625 C 180.234375 209.121094 177.460938 203.472656 176.253906 197.625 C 174.964844 191.746094 174.949219 186.050781 175.757812 180.363281 C 176.523438 174.652344 178.652344 168.898438 181.777344 164.0625 C 183.300781 161.609375 185.109375 159.421875 186.96875 157.425781 C 188.832031 155.433594 190.757812 153.601562 192.722656 151.941406 C 196.613281 148.582031 200.5 145.679688 203.957031 142.519531 C 207.441406 139.390625 210.492188 135.964844 212.785156 131.886719 C 215.105469 127.835938 216.5625 123.144531 217.453125 118.210938 " fill-opacity="1" fill-rule="nonzero"/></g><path fill="#ffffff" d="M 42.769531 85.789062 C 43.578125 90.710938 43.582031 95.988281 42.164062 101.097656 C 40.835938 106.234375 38.140625 111.046875 35.027344 115.25 C 31.902344 119.46875 28.433594 123.183594 25.355469 126.824219 C 22.292969 130.464844 19.578125 134.03125 17.835938 137.777344 C 16.949219 139.636719 16.21875 141.523438 15.777344 143.488281 C 15.492188 144.445312 15.367188 145.460938 15.167969 146.4375 C 15.074219 147.460938 14.875 148.4375 14.867188 149.484375 C 14.691406 153.601562 14.953125 157.945312 16.078125 161.664062 C 18.082031 169.238281 23.472656 175.097656 30.714844 181.894531 C 34.242188 185.363281 38.125 189.101562 41.539062 193.785156 C 44.925781 198.4375 47.683594 204.085938 48.902344 209.933594 C 49.558594 212.84375 49.84375 215.777344 49.929688 218.644531 C 49.929688 220.074219 49.992188 221.503906 49.851562 222.921875 L 49.691406 225.054688 L 49.394531 227.203125 C 48.632812 232.914062 46.507812 238.675781 43.375 243.511719 C 41.851562 245.964844 40.046875 248.15625 38.183594 250.144531 C 36.320312 252.140625 34.390625 253.976562 32.425781 255.636719 C 28.539062 258.992188 24.652344 261.898438 21.191406 265.054688 C 17.707031 268.175781 14.660156 271.601562 12.363281 275.679688 C 10.042969 279.734375 8.578125 284.417969 7.679688 289.351562 C 6.867188 284.433594 6.855469 279.160156 8.277344 274.046875 C 9.601562 268.90625 12.300781 264.089844 15.402344 259.886719 C 18.53125 255.660156 21.996094 251.941406 25.078125 248.304688 C 28.144531 244.667969 30.847656 241.097656 32.59375 237.355469 C 33.484375 235.496094 34.207031 233.609375 34.652344 231.652344 C 34.9375 230.691406 35.0625 229.679688 35.269531 228.699219 C 35.359375 227.683594 35.554688 226.699219 35.558594 225.660156 C 35.734375 221.542969 35.484375 217.203125 34.355469 213.484375 C 32.363281 205.914062 26.972656 200.050781 19.746094 193.25 C 16.226562 189.769531 12.324219 186.046875 8.925781 181.347656 C 5.542969 176.703125 2.777344 171.054688 1.566406 165.210938 C 0.28125 159.332031 0.265625 153.636719 1.074219 147.945312 C 1.839844 142.238281 3.964844 136.476562 7.089844 131.640625 C 8.613281 129.1875 10.417969 127 12.285156 125.011719 C 14.144531 123.019531 16.074219 121.179688 18.035156 119.527344 C 21.925781 116.167969 25.816406 113.265625 29.269531 110.105469 C 32.757812 106.976562 35.800781 103.550781 38.097656 99.472656 C 40.421875 95.414062 41.875 90.726562 42.769531 85.789062 " fill-opacity="1" fill-rule="nonzero"/></svg>